<svg xmlns="http://www.w3.org/2000/svg" xmlns:xlink="http://www.w3.org/1999/xlink" id="fi_4470714" width="512" height="512" viewBox="0 0 128 128"><defs><linearGradient id="a" x1="108.716" x2="19.284" y1="108.716" y2="19.284" gradientUnits="userSpaceOnUse"><stop offset="0" stop-color="#f37"/><stop offset="1" stop-color="#ffbf2d"/></linearGradient></defs><path fill="url(#a)" d="M127.691,64.992,116.6,81.093l-.49,19.546a1.747,1.747,0,0,1-1.168,1.606L96.5,108.74,84.632,124.28a1.751,1.751,0,0,1-1.892.615L64,119.3l-18.74,5.6a1.751,1.751,0,0,1-1.892-.615L31.5,108.74l-18.443-6.5a1.747,1.747,0,0,1-1.168-1.606L11.4,81.094.309,64.992a1.747,1.747,0,0,1,0-1.984L11.4,46.907l.491-19.546a1.747,1.747,0,0,1,1.168-1.606L31.5,19.26,43.368,3.72a1.754,1.754,0,0,1,1.892-.615L64,8.705l18.74-5.6a1.754,1.754,0,0,1,1.892.615L96.5,19.26l8.856,3.12a1.75,1.75,0,1,1-1.162,3.3l-9.349-3.293a1.759,1.759,0,0,1-.81-.588L82.584,6.805,64.5,12.208a1.744,1.744,0,0,1-1,0l-18.083-5.4-11.452,15a1.759,1.759,0,0,1-.81.588l-17.8,6.267-.472,18.861a1.739,1.739,0,0,1-.308.948L3.875,64l10.7,15.537a1.742,1.742,0,0,1,.308.948l.472,18.859,17.8,6.268a1.759,1.759,0,0,1,.81.588L45.416,121.2l18.083-5.4a1.744,1.744,0,0,1,1,0l18.083,5.4L94.036,106.2a1.759,1.759,0,0,1,.81-.588l17.8-6.267.473-18.861a1.739,1.739,0,0,1,.308-.948L124.125,64l-10.7-15.537a1.742,1.742,0,0,1-.308-.948l-.5-20.065a1.749,1.749,0,0,1,1.7-1.793h.045a1.749,1.749,0,0,1,1.748,1.706l.49,19.544,11.089,16.1A1.75,1.75,0,0,1,127.691,64.992ZM106.943,64A42.943,42.943,0,1,1,64,21.057,42.991,42.991,0,0,1,106.943,64Zm-3.5,0A39.443,39.443,0,1,0,64,103.443,39.488,39.488,0,0,0,103.443,64ZM34.992,76.135a1.75,1.75,0,1,0-3.226,1.355,35.022,35.022,0,0,0,2.767,5.276,1.75,1.75,0,1,0,2.949-1.885A31.5,31.5,0,0,1,34.992,76.135ZM64,29.057A34.982,34.982,0,0,0,29.057,64a1.75,1.75,0,0,0,3.5,0A31.464,31.464,0,1,1,47.8,90.942a1.75,1.75,0,1,0-1.809,3A34.94,34.94,0,1,0,64,29.057Zm-4.706,54L42.165,65.929a1.749,1.749,0,0,1,0-2.475l7.07-7.07a1.749,1.749,0,0,1,2.475,0l8.821,8.82,18.9-18.9a1.748,1.748,0,0,1,2.474,0l7.071,7.07a1.751,1.751,0,0,1,0,2.475L61.769,83.059a1.752,1.752,0,0,1-2.475,0ZM45.877,64.691,60.531,79.347,85.264,54.613l-4.6-4.595-18.9,18.9a1.749,1.749,0,0,1-2.475,0L50.473,60.1Z"/></svg>