<svg id="Layer_5" enable-background="new 0 0 64 64" height="512" viewBox="0 0 64 64" width="512" xmlns="http://www.w3.org/2000/svg" xmlns:xlink="http://www.w3.org/1999/xlink"><linearGradient id="SVGID_1_" gradientUnits="userSpaceOnUse" x1="32.003" x2="32.003" y1="63" y2="1"><stop offset="0" stop-color="#9f2fff"/><stop offset="1" stop-color="#0bb1d3"/></linearGradient><path d="m57 23h2v2h-2zm-4 2h2v-2h-2zm-2-2h-2v2h2zm8-4h-10v2h10zm-57.503 30.21c-1.713-4.145 1.114-9.532 7.556-14.472.54-11.768 8.544-21.751 19.947-24.798v-5.94c0-1.654 1.346-3 3-3h28c1.654 0 3 1.346 3 3v22c0 .943-.446 1.775-1.127 2.325.735 2.482 1.127 5.057 1.127 7.675 0 14.888-12.112 27-27 27-7.2 0-14.154-2.925-19.207-8.036-.637.032-1.263.051-1.874.051-6.765 0-11.842-1.98-13.422-5.805zm28.775 11.111c-1.609-1.608-3.046-3.904-4.22-6.804-2.278.571-4.489.976-6.597 1.217 3.096 2.729 6.826 4.642 10.817 5.587zm-7.257-25.321c.066-3.908.513-7.64 1.299-11h-10.271c-1.673 3.073-2.705 6.528-2.966 10.18l-.029.82zm.741 10.092c-.439-2.599-.685-5.308-.733-8.092h-11.997c.118 3.029.772 5.958 1.948 8.732 2.764.495 6.505.352 10.782-.64zm4.741-1.379c4.017-1.42 7.625-3.358 10.287-5.514l-1.198-1.199h-12.563c.046 2.612.272 5.154.676 7.592.916-.259 1.846-.543 2.798-.879zm18.424-10.647c-.072-1.366-.208-2.73-.384-4.066h-14.537c-1.654 0-3-1.346-3-3v-2h-2.608c-.824 3.345-1.306 7.098-1.377 11h12.878zm-17.921-16.194c-.796 1.504-1.49 3.23-2.066 5.128h2.066zm24.457 14.793-1.026 3.335h8.53c-.081-2.044-.407-4.053-.974-6h-11.435c.151 1.193.269 2.408.342 3.643zm-4.989 16.216-.705-.705c-.048.27-.106.55-.158.823h10.32c1.808-3.289 2.893-7.027 3.05-11h-9.159zm-2.448-2.447-.706-.706c-1.573 1.16-3.306 2.253-5.15 3.271h5.397c.166-.857.322-1.712.459-2.565zm-13.582 6.104c-1.493.555-2.974 1.038-4.435 1.458 2.094 5.037 5.028 8.004 7.997 8.004 3.581 0 6.997-4.181 9.068-11h-8.894c-1.213.548-2.459 1.063-3.736 1.538zm24.264-1.538h-9.558c-1.322 4.585-3.198 8.116-5.418 10.331 6.193-1.458 11.507-5.218 14.976-10.331zm-7.702-45v2h2v-4h-10v4h2v-2h2v2h2v-2zm-18 21c0 .551.448 1 1 1h28c.552 0 1-.449 1-1v-22c0-.551-.448-1-1-1h-7v6h-14v-6h-7c-.552 0-1 .449-1 1zm-15.742-4h9.58c1.016-3.54 2.426-6.577 4.162-8.852v-1.133c-5.761 1.671-10.557 5.255-13.742 9.985zm-7.035 21.034c.36.827 1.169 1.512 2.341 2.017-.704-1.972-1.178-4.008-1.403-6.095-1.069 1.544-1.419 2.974-.938 4.078zm-4.878 5.412c2.288 5.535 15.291 6.092 28.396 1.217 4.953-1.842 9.467-4.279 13.054-7.048l.696-.538 2.041 2.042 3.011-9.784-10.536 2.258 1.706 1.706-.788.705c-2.905 2.599-7.082 4.941-11.762 6.596-10.695 3.782-20.698 3.006-22.774-1.767-.535-1.229-.512-2.598.042-4.034-2.896 3.183-4.058 6.294-3.086 8.647z" fill="url(#SVGID_1_)"/></svg>